<svg width="2e3" height="1e3" version="1.1" viewBox="0 0 529.17 264.58" xmlns="http://www.w3.org/2000/svg">
 <g transform="translate(-5.0479 -.033176)">
  <path d="m5.0479 0.023358v97.833c15.405 7.9029 36.157 15.619 73.608 13.51 50.977-2.2159 113.95-51.673 130.05-52.259 12.63-0.45978 27.031 19.071 49.394 27.068 25.455 9.1025 68.509 22.727 94.043 23.485 52.476 1.2205 80.647-68.637 129.37-74.895 20.139-1.414 29.232 8.584 52.703 17.497v-52.239z" color="#000000" fill="#00074b" stroke-width="3.8632" style="-inkscape-stroke:none;mix-blend-mode:normal"/>
  <path d="m460.08 7.0829c-47.661 0.70069-117.32 58.253-126.61 61.535-10.391-2.1351-37.288-12.568-52.186-18.603-28.813-11.671-45.239-24.363-79.764-24.794-50.34-0.62772-66.507 13.743-83.26 25.287-16.753 11.544-34.758 25.725-47.836 25.612-20.82-0.17978-35.638-11.69-56.461-28.15-3.0739-2.4298-5.9908-4.4894-8.9121-6.4983v156.65c24.877 14.308 60.248 10.089 69.294 18.585 46.496 4.9287 115.46-59.441 130.07-55.111 11.389 3.3749 37.718 17.77 57.109 29.16 16.432 9.6527 53.221 19.63 77.347 20.346 49.582 1.1531 86.637-60.694 122.23-70.764 14.342-1.007 47.486 15.319 73.114 27.334v-144.07c-18.128-7.884-29.958-13.759-69.593-16.406-1.4889-0.099444-3.0034-0.13629-4.5408-0.11369z" color="#000000" fill="#000b6f" stroke-width="3.6501" style="-inkscape-stroke:none;mix-blend-mode:normal"/>
  <path d="m456.69 138.39c-46.261 0.58679-113.02 54.974-126.17 55.539-20.834 0.89606-64.208-41.17-126.01-40.251-48.927-0.61018-64.64 13.358-80.922 24.578-16.283 11.22-33.782 25.003-46.494 24.893-20.236-0.17473-34.637-11.362-54.876-27.36-5.1807-4.0952-11.069-6.5317-17.172-8.7752v97.614h529.17v-107.19c-26.887-10.794-52.935-17.46-73.114-18.933-1.4471-0.0966-2.9183-0.13365-4.4106-0.11472z" color="#000000" fill="#00074b" stroke-width="3.5477" style="-inkscape-stroke:none;mix-blend-mode:normal"/>
 </g>
</svg>
