<svg width="115.14mm" height="115.25mm" version="1.1" viewBox="0 0 115.14 115.25" xmlns="http://www.w3.org/2000/svg">
 <g transform="translate(-47.429 -90.877)">
  <g transform="matrix(1.7744 0 0 1.7744 -93.472 33.011)">
   <path transform="matrix(1.5007 0 0 1.5007 -56.032 -32.581)" d="m124.49 65.043c0 0.34866-0.0352 0.68505-0.063 1.0266-0.0606 0.30908 0.0254 0.72465-0.032 1.0709 0.0422 0.35264-0.14728 0.6272-0.22861 0.95168-0.107 0.29765-0.20169 0.63736-0.31144 0.96023-0.12907 0.29289-0.22996 0.62798-0.36191 0.93427-0.13137 0.29894-0.24441 0.61068-0.39609 0.89947-0.12534 0.30308-0.34478 0.52056-0.51744 0.79564-0.2073 0.23107-0.31365 0.57473-0.51058 0.84116-0.14526 0.28342-0.39965 0.52012-0.61427 0.76808-0.21093 0.24436-0.40527 0.49492-0.63448 0.72257-0.20482 0.24447-0.46823 0.45208-0.71717 0.66369-0.24331 0.2112-0.49761 0.41106-0.76064 0.60194-0.2585 0.19146-0.56954 0.27329-0.84762 0.44412-0.31619 0.07362-0.59735 0.27758-0.89067 0.43193-0.31581 0.09189-0.53272 0.29616-0.82894 0.43013-0.26255 0.14145-0.61958 0.2709-0.94042 0.38831-0.30606 0.11564-0.61959 0.21775-0.93915 0.30723-0.31739 0.09271-0.63963 0.17248-0.97042 0.23526-0.32507 0.06877-0.52946 0.11836-0.87203 0.14998-0.34319 0.03167-0.85033-0.07431-1.196-0.07431-0.34866 0-0.68251-0.0081-1.0239-0.03523-0.33406-0.02171-0.68229-0.06406-1.0194-0.11838-0.33022-0.04937-0.58043-0.08609-0.90605-0.16554-0.26823-0.05136-0.70334-0.19946-1.045-0.31469-0.31209-0.11673-0.61538-0.22774-0.91461-0.35505-0.29949-0.13425-0.60326-0.28953-0.89045-0.43846-0.29181-0.16972-0.57408-0.32631-0.84264-0.49173-0.28377-0.18851-0.53298-0.3962-0.78544-0.5782-0.256-0.23838-0.50011-0.37785-0.73451-0.57316-0.25141-0.21256-0.47866-0.41463-0.7041-0.63223-0.23176-0.22425-0.46608-0.53274-0.67693-0.76934-0.21368-0.30343-0.2923-0.4176-0.47199-0.64953-0.11849-0.24311-0.39002-0.53444-0.57956-0.82295-0.15842-0.25571-0.31007-0.52608-0.46977-0.81482-0.12154-0.26311-0.22574-0.58383-0.3666-0.89214-0.051-0.29512-0.3034-0.67042-0.42523-0.98962-0.14191-0.3408-0.17823-0.56173-0.26652-0.855-0.06606-0.30716-0.21171-0.77045-0.28425-1.1045-0.0941-0.42535-0.10525-0.58163-0.13793-0.86914-0.03736-0.32868 7.69e-4 -0.66804 7.69e-4 -1.0402 0-0.34866-0.0093-0.72208 0.01808-1.0636 0.0035-0.36154 0.11026-0.63273 0.1623-0.95825 0.09828-0.31004 0.10588-0.69531 0.18661-1.0262 0.0615-0.33811 0.16173-0.64039 0.26321-0.94961 0.09649-0.31913 0.1799-0.722 0.30564-1.0232 0.0797-0.38197 0.21944-0.59771 0.35563-0.86603 0.12077-0.32907 0.27048-0.6482 0.4365-0.91935 0.1324-0.34971 0.32351-0.587 0.5056-0.83713 0.17416-0.31872 0.37506-0.62501 0.58024-0.86277 0.19124-0.35233 0.40214-0.50629 0.61696-0.7171 0.22683-0.2818 0.47091-0.4355 0.71813-0.63811 0.26026-0.20754 0.65618-0.382 0.93118-0.56861 0.37862-0.13958 0.55063-0.3141 0.80651-0.46231 0.32622-0.14748 0.53413-0.45303 0.81572-0.58982 0.27093-0.2869 0.57292-0.26806 0.86931-0.37842 0.30931-0.12186 0.66197-0.19411 0.9873-0.2812 0.3436-0.06046 0.62659-0.16153 0.94899-0.22291 0.32334-0.06759 0.73012-0.09248 1.0698-0.13185 0.39013-0.01686 0.63338-0.0689 0.94973-0.09212 0.3325-0.02441 0.74308-0.02275 1.1071-0.02275 0.34866 0 0.69087 0.01038 1.032 0.03802 0.33938 0.02403 0.65623 0.02906 0.99 0.08357 0.31929 0.01606 0.72268 0.14501 1.0563 0.22862 0.34928 0.09621 0.62576 0.17701 0.92518 0.27701 0.32017 0.11348 0.63615 0.23766 0.9329 0.36336 0.3168 0.14367 0.61857 0.28798 0.89799 0.43236 0.31505 0.17178 0.62871 0.32204 0.88966 0.48244 0.33831 0.18371 0.46699 0.23663 0.70463 0.40746 0.25441 0.12299 0.5662 0.42728 0.82961 0.65422 0.25206 0.21711 0.45386 0.38591 0.67869 0.61346 0.2157 0.1996 0.5595 0.50719 0.77738 0.76886 0.28647 0.24676 0.46849 0.50937 0.64341 0.75685 0.26438 0.28264 0.33776 0.44774 0.49069 0.7069 0.17501 0.24478 0.3266 0.59034 0.47404 0.9044 0.13217 0.28986 0.32423 0.61669 0.44129 0.9336 0.16539 0.30882 0.20493 0.60247 0.29124 0.91814 0.0824 0.31208 0.16048 0.53897 0.2242 0.87448 0.0635 0.23908 0.12713 0.73297 0.16915 1.1164 0.0422 0.33864 0.0928 0.69096 0.10964 1.0294 0.0174 0.34964-0.0156 0.64431-0.0156 0.98287z" fill="#ff6902" stroke-linecap="round" stroke-linejoin="round" stroke-width="27.69"/>
   <path transform="rotate(99.339 111.68 65.029)" d="m112.21 45.701c-0.48862-0.22405-1.7232 0.42039-2.3752 0.48673-0.59938 0.06099-1.3013 0.23026-1.8926 0.34598-0.57585 0.11271-1.1416 0.27203-1.705 0.43603-0.59422 0.17298-0.97034 0.35957-1.5453 0.58865-0.63088 0.25138-1.1493 0.58528-1.7505 0.90105-0.5573 0.29268-1.1188 0.53644-1.646 0.88039-0.51709 0.33735-1.0179 0.66545-1.5005 1.0504-0.48199 0.38442-1.0584 0.8716-1.5013 1.3005-0.40661 0.39376-0.95246 0.70752-1.322 1.1362-0.39845 0.46224-0.842 0.95746-1.1877 1.4603-0.34452 0.50112-0.95492 0.86428-1.2419 1.4004-0.30416 0.56815-0.54087 1.391-0.75832 1.9976-0.19093 0.53264-0.35972 0.8447-0.49799 1.3934-0.17482 0.69372-0.0062 1.4282-0.09966 2.1375-0.08473 0.64289-0.31404 1.5458-0.42435 2.1848-0.11153 0.64605-0.15114 1.1336-0.38073 1.6488-0.26785 0.60109 0.25007 1.5012 0.33165 2.1542 0.07113 0.56934-0.18675 1.2466-0.06754 1.8078 0.13187 0.62086 0.31529 1.2559 0.50896 1.8604 0.19263 0.60117 0.29405 1.2064 0.54591 1.7853 0.25994 0.59743 0.82129 1.2313 1.1428 1.798 0.2806 0.49464 0.60341 0.868 0.92588 1.3364 0.36787 0.53438 0.63576 1.0126 1.0537 1.5088 0.42526 0.50483 0.88241 0.87883 1.3567 1.3379 0.46193 0.44718 0.91573 0.92367 1.4175 1.3257 0.48194 0.3861 0.73439 0.31395 1.2503 0.65336 0.63741 0.41936 1.1097 0.83614 1.7822 1.1965 0.59033 0.3163 1.3621 0.62543 1.979 0.88607 0.52536 0.22195 1.0788 0.01928 1.6191 0.20202 0.63344 0.21427 1.3235 0.5055 1.9583 0.71567 0.57413 0.19009 1.2628 0.27826 1.8554 0.39886 0.63696 0.12962 1.2065 0.28781 1.8204 0.36763 0.65107 0.08465 1.3489-0.13589 2.0016-0.20688 0.62317-0.06778 1.4233-0.47134 2.0371-0.59851 0.53584-0.11102 1.0482-0.3128 1.5732-0.46701 0.59189-0.17385 0.67804-0.52439 1.2514-0.75204 0.68464-0.27184 1.3571-0.69166 2.01-1.0327 0.5166-0.26986 1.1437-0.59281 1.6368-0.90346 0.47445-0.29888 1.052-0.61943 1.5006-0.95583 0.45698-0.34266 0.99231-0.68405 1.4172-1.0658 0.43749-0.39307 0.92826-1.1376 1.3249-1.5718 0.3438-0.37633 0.77554-0.7764 1.0876-1.1794 0.36083-0.4659 0.71208-0.85705 1.0202-1.3594 0.338-0.55112 0.69627-1.0531 0.95984-1.6435 0.26374-0.5907 0.58532-1.2552 0.7674-1.876 0.17295-0.58965-0.0521-1.1877 0.0429-1.7948 0.1028-0.65715 0.20148-1.198 0.32794-1.851 0.12225-0.63122 0.27228-1.4974 0.23067-2.2502-0.0355-0.64227-0.0799-1.4576-0.14357-2.0977-0.0567-0.57066-0.53052-1.2158-0.63995-1.7787-0.10759-0.55347-0.26737-1.0281-0.42272-1.5701-0.17296-0.60348-0.39509-1.1022-0.62595-1.686-0.23168-0.58588-0.71379-0.97507-1.0014-1.5356-0.2811-0.54784-0.80182-1.0722-1.1304-1.593-0.29741-0.47129-0.61083-0.93242-0.9438-1.3793-0.35406-0.47518-0.67757-0.83498-1.0714-1.2777-0.41879-0.47079-0.9076-0.78272-1.3692-1.2116-0.45123-0.41917-1.037-0.89269-1.5238-1.27-0.43981-0.34093-0.55881-0.65946-1.0265-0.96098-0.59379-0.3828-1.208-0.98401-1.8479-1.2833-0.54146-0.25324-1.2725-0.48096-1.8447-0.65401-0.55675-0.16838-1.1246-0.33811-1.6967-0.44271-0.63334-0.11578-1.301-0.28488-1.9436-0.32476-0.63709-0.03954-1.1203 0.1144-1.6089-0.10965zm-0.48672 1.8195c0.5991-0.16889 1.4921 0.27628 2.1651 0.35428 0.66011 0.07651 1.3326 0.16042 1.9797 0.31142 0.63168 0.1474 1.2392 0.49622 1.8504 0.71364 0.58914 0.20959 0.62294 0.30801 1.1868 0.57823 0.73106 0.35033 1.3609 0.96049 2.0404 1.4026 0.50688 0.32983 0.71532 0.0854 1.1913 0.45844 0.64568 0.50605 1.2695 1.3223 1.8428 1.9091 0.38964 0.39886 0.62208 0.84882 0.97957 1.2767 0.41165 0.49275 0.75932 0.99795 1.128 1.5237 0.36382 0.51884 0.67366 0.89448 0.98949 1.4439 0.33994 0.59131 0.55979 1.1162 0.82953 1.7427 0.26883 0.62434 0.76158 1.1255 0.96145 1.7752 0.20231 0.65762 0.16607 1.377 0.21353 2.0634 0.0478 0.69163 0.18567 1.3976 0.32645 2.0878 0.13446 0.65914 0.0917 1.316 5e-3 1.9831-0.0884 0.67626-0.10135 1.3093-0.26957 1.9703-0.16823 0.66094-0.46081 1.2279-0.70727 1.8638-0.23987 0.61892-0.54368 1.0294-0.85144 1.6175-0.32025 0.61197-0.48775 1.4085-0.87364 1.9814-0.34763 0.51603-0.74625 0.814-1.1473 1.2897-0.43909 0.52082-0.86705 1.3885-1.3596 1.8592-0.41142 0.39315-0.59301 0.85987-1.0435 1.2076-0.55743 0.43024-1.1161 0.88061-1.729 1.2273-0.57054 0.32278-0.74664 0.60848-1.3531 0.85733-0.73162 0.30022-1.2611 0.40631-2.0282 0.59886-0.71707 0.18001-1.3312 0.50486-2.0596 0.63107-0.68605 0.11886-1.3948 0.13334-2.0906 0.15771-0.71547 0.02505-1.3555 0.06667-2.0085-0.0836-0.66065-0.15202-1.0352-0.2898-1.7095-0.35917-0.743-0.07643-1.518-0.1994-2.2457-0.36772-0.61227-0.14162-1.037-0.32018-1.631-0.52552-0.64733-0.2238-1.2331-0.53191-1.851-0.82737-0.56908-0.2721-0.76562-0.77905-1.304-1.1077-0.57682-0.35212-1.3952-0.44667-1.9357-0.85241-0.48675-0.36543-0.84062-0.63515-1.2859-1.0501-0.49534-0.46157-0.85966-0.95062-1.2975-1.467-0.41828-0.49334-0.87905-1.0091-1.2436-1.5434-0.34881-0.51047-0.61984-0.6556-0.9111-1.2007-0.35942-0.67261-0.60455-1.5482-0.86291-2.2658-0.20367-0.56561-0.28349-1.5957-0.4417-2.1757-0.1372-0.50292-0.49988-1.0031-0.62625-1.5089-0.1559-0.62396-0.05782-1.3398-0.10247-2.0087-0.04506-0.67509 0.16518-1.0521 0.24639-1.7238 0.09009-0.74518 0.16168-1.4936 0.34429-2.2217 0.15829-0.6311 0.81563-1.5349 1.042-2.1449 0.17114-0.46126 0.10528-0.64403 0.31142-1.0907 0.31211-0.67638 0.30834-1.3419 0.70085-1.975 0.36771-0.59313 0.76363-1.2175 1.2028-1.7599 0.39357-0.48598 0.77328-0.97244 1.2183-1.4118 0.45768-0.45181 0.94682-0.90095 1.4529-1.2978 0.4986-0.39099 0.93526-0.80696 1.474-1.1405 0.56118-0.34748 0.88486-0.59182 1.4839-0.86898 0.66986-0.30994 1.7756-0.53656 2.4791-0.75982 0.49918-0.15842 1.3674-0.3077 1.8745-0.43857 0.52465-0.1354 1.0599-0.412 1.5934-0.50704 0.61905-0.1103 1.2573-0.03273 1.8564-0.20162z" color="#000000" fill="#f79b46" stroke-linecap="round" stroke-linejoin="round" style="-inkscape-stroke:none"/>
   <path d="m142.81 74.216c-0.18545 0.61097-0.43582 1.1541-0.65537 1.7508-0.26069 0.55158-0.34494 1.2303-0.59831 1.8255-0.13499 0.6118-0.55791 1.127-0.85731 1.6977-0.32326 0.52053-0.62867 1.0984-0.94854 1.653-0.31795 0.55124-0.62449 1.1197-0.96474 1.6399-0.32343 0.49452-0.89765 0.54266-1.0973 0.11021-0.2597-0.56265-0.5698-1.1761-0.85544-1.7206-0.31416-0.58814-0.50358-1.019-0.79771-1.5202-0.25384-0.50976-0.65071-1.0582-1.0004-1.5732-0.33705-0.49645-0.65353-0.96617-0.99906-1.4411-0.29634-0.40732-0.0758-0.99019 0.41985-1.0536 0.51107-0.06539 1.0292-0.14524 1.5427-0.24112 0.51766-0.09501 0.9828-0.32401 1.4958-0.45076 0.4752-0.2452 1.0048-0.32835 1.5285-0.47102 0.48681-0.21201 1.1072-0.27584 1.637-0.43338 0.52634-0.15651 1.0003-0.33344 1.5102-0.55772 0.42047-0.18492 0.79813 0.24369 0.63464 0.78232zm-1.08-7.0626c-0.44446 0.47407-0.83793 0.89718-1.3007 1.3208-0.31633 0.45476-1.0249 0.727-1.5562 1.1168-0.51739 0.22879-0.98673 0.74646-1.4894 1.0989-0.49305 0.34566-0.99306 0.66803-1.4767 0.93816-0.33423 0.18667-0.64514-0.02492-0.6586-0.38778-0.0234-0.63147-0.0877-1.2731-0.18079-1.8906-0.095-0.62946-0.21599-1.2251-0.36243-1.812-0.14762-0.59157-0.33131-1.188-0.51967-1.7473-0.13096-0.38882 0.22218-0.79116 0.69995-0.73448 0.54505 0.06466 1.0819 0.0663 1.6271 0.14438 0.54172 0.0086 1.0901 0.15874 1.6405 0.25982 0.53293 0.08678 1.0874 0.20694 1.632 0.31967 0.54138 0.11206 1.0639 0.13121 1.5972 0.23726 0.39272 0.0781 0.65782 0.80576 0.34782 1.1364zm-10.072 23.008c-0.4852 0.39656-0.94842 0.94787-1.4559 1.3175-0.48413 0.39291-0.98422 0.76219-1.5177 1.103-0.48791 0.37714-0.98348 0.6764-1.5476 0.98281-0.46306 0.31959-1.2129 0.53346-1.8259 0.80824-0.5869 0.26308-1.1042 0.59534-1.6733 0.83799-0.54995 0.23448-1.147-0.2343-1.073-0.70173 0.0964-0.60874 0.18926-1.1966 0.25545-1.7886 0.0778-0.58392 0.19276-1.1814 0.22583-1.7686 0.10954-0.58161 2e-3 -1.1998-0.0164-1.7833-0.0189-0.5824 0.0259-1.0962-6e-3 -1.683-0.0272-0.50223 0.41688-0.90368 0.86855-0.68667 0.46526 0.22354 0.93401 0.42943 1.4199 0.63224 0.48098 0.19615 0.94277 0.27594 1.4506 0.458 0.47805 0.0659 1.0307 0.32504 1.578 0.506 0.49387 0.12102 1.0257 0.25078 1.5695 0.41118 0.5374 0.1585 1.1015 0.32443 1.6372 0.42656 0.45126 0.08603 0.53746 0.57956 0.1107 0.92835zm2.9514-6.2578c-0.62296 0.11652-1.2932 0.12155-1.9089 0.19563-0.61893 0.0064-1.2239 0.13846-1.8298 0.18147-0.60129 0.04652-1.0478 0.09954-1.6414 0.10184-0.59318 0.0023-1.273-0.03768-1.8502-0.08294-0.38464-0.03016-0.67037-0.65239-0.47677-0.96606 0.3364-0.54504 0.64668-1.0842 0.93808-1.6156 0.28678-0.53712 0.59564-1.0306 0.84022-1.5674 0.24514-0.5381 0.42466-1.1194 0.61828-1.6883 0.13597-0.39948 0.76452-0.47701 1.1098-0.14877 0.3955 0.37602 0.78461 0.75452 1.1671 1.1348 0.3836 0.38075 0.84577 0.78243 1.2198 1.1681 0.45247 0.39702 0.7046 0.7482 1.0463 1.1273 0.35784 0.39707 0.68939 0.75495 1.0717 1.1662 0.27253 0.29315 0.12983 0.91253-0.30417 0.9937zm-21.312 13.616c-0.43418 0.03371-0.96656 0.02747-1.4054 0.04405-0.57756-0.0071-1.1229-0.0059-1.695-0.04355-0.55141-0.01439-1.1124-0.05772-1.6895-0.12873-0.52901-0.03519-1.055-0.12728-1.6329-0.23391-0.46973-0.07098-1.2052-0.33186-1.7942-0.47324-0.55929-0.13424-1.0653-0.17313-1.5804-0.31574-0.58138-0.16098-0.83813-0.78951-0.48551-1.1074 0.45912-0.41384 1.0161-0.8171 1.4495-1.244 0.53256-0.39966 0.92769-0.79804 1.3075-1.2312 0.50069-0.40597 0.74098-0.97908 1.0757-1.4567 0.33624-0.47986 0.64834-0.92156 0.99303-1.4087 0.28966-0.40939 0.97783-0.33992 1.1994 0.10752 0.25619 0.51736 0.51956 1.0171 0.80995 1.5263 0.28433 0.4976 0.60055 0.88535 0.93909 1.391 0.33568 0.50135 0.70715 1.1394 1.0957 1.6274 0.28519 0.34874 0.61544 0.7104 0.92031 1.0468 0.30486 0.3364 0.57171 0.60376 0.89886 0.92987 0.32722 0.32618 0.0444 0.84621-0.53592 0.89127zm6.2148-3.6834c-0.58786-0.24551-1.2557-0.57846-1.8107-0.85836-0.563-0.30319-1.0994-0.59163-1.612-0.89722-0.53587-0.33209-1.0112-0.62691-1.4852-0.96073-0.48072-0.33857-0.93536-0.69244-1.3809-1.0722-0.29375-0.25035-0.17233-0.71595 0.16333-0.85484 0.58507-0.2421 1.1064-0.59968 1.646-0.88751 0.49789-0.37804 1.0612-0.62542 1.5683-0.92944 0.51081-0.30624 1.1186-0.53862 1.5835-0.90277 0.32469-0.2543 0.7089-0.21677 0.81677 0.2446 0.1234 0.52779 0.24085 1.0458 0.35579 1.588 0.11407 0.52775 0.22712 1.1004 0.33427 1.6565 0.10521 0.54805 0.31834 1.1443 0.41495 1.6913 0.0968 0.54811 0.0614 1.027 0.14821 1.5625 0.0635 0.39165-0.33198 0.79152-0.74239 0.62012zm-25.436-2.0879c-0.52342-0.34655-1.0366-0.68895-1.5396-1.0639-0.51045-0.38453-1.0038-0.91193-1.4807-1.3098-0.47585-0.5381-0.94512-0.8211-1.3813-1.2067-0.50026-0.46677-0.77706-0.79596-1.2054-1.2155-0.43833-0.42934-0.91176-0.86168-1.3362-1.3568-0.38373-0.44772-0.30223-1.0576 0.16677-1.1317 0.61051-0.09651 1.2505-0.19385 1.8474-0.3197 0.6255-0.10996 1.1883-0.2462 1.759-0.39943 0.60135-0.1383 1.1528-0.32639 1.715-0.51298 0.56421-0.18726 1.2195-0.3662 1.7807-0.57153 0.47525-0.17389 0.95131 0.2247 0.8744 0.72197-0.07922 0.51222-0.04087 1.0308-0.09985 1.5521 0.04921 0.52509 0.03752 1.072-0.0076 1.604 0.10691 0.54769-0.05672 1.0858-0.09939 1.6177-0.0027 0.56018-0.06164 1.074-0.07966 1.6042-0.01839 0.54135-0.04264 1.0604 0.01883 1.6204 0.04989 0.45448-0.47174 0.67275-0.93245 0.36772zm7.0616 0.93434c-0.30133-0.55765-0.55443-1.1011-0.80918-1.6647-0.21322-0.54025-0.48776-1.1454-0.70756-1.7286-0.20037-0.55648-0.44016-1.2246-0.61386-1.7943-0.17344-0.56889-0.29795-1.059-0.41959-1.618-0.08191-0.37646 0.27703-0.68943 0.63183-0.59457 0.61661 0.16485 1.2093 0.25312 1.8217 0.36712 0.59421 0.06364 1.2372 0.21688 1.8512 0.29258 0.60432 0.07451 1.2158 0.13312 1.8006 0.14397 0.41335 0.0077 0.64449 0.45519 0.4388 0.88131-0.23549 0.48787-0.44012 1.0008-0.68264 1.487-0.20768 0.51034-0.45539 0.9943-0.71024 1.4724-0.21989 0.50824-0.46247 0.98981-0.73612 1.4579-0.27439 0.46933-0.61651 0.89551-0.88703 1.3702-0.19682 0.34535-0.64613 0.31794-0.85618-0.07079zm-19.323-16.103c-0.2455-0.58492-0.49385-1.1977-0.70628-1.7991-0.22484-0.61345-0.40742-1.203-0.58292-1.8125-0.18133-0.6206-0.33752-1.2406-0.47832-1.8702-0.14213-0.6326-0.24976-1.2562-0.35404-1.901-0.10408-0.64348-0.2091-1.3146-0.27719-1.9729-0.06388-0.61763 0.39049-1.0488 0.81909-0.82126 0.55755 0.29599 1.0942 0.50641 1.6568 0.7664 0.54954 0.19721 1.1569 0.52092 1.7376 0.7581 0.56686 0.23146 1.1186 0.43679 1.6811 0.62926 0.56789 0.19432 1.125 0.33284 1.6915 0.48002 0.48565 0.12619 0.66084 0.74667 0.32123 1.1109-0.35038 0.37578-0.58082 0.78214-0.91236 1.186-0.23019 0.43133-0.68447 0.82059-1.0158 1.2622-0.32585 0.40374-0.57486 0.90928-0.87802 1.3637-0.2414 0.49057-0.64201 0.82334-0.93373 1.2861-0.2947 0.4675-0.41364 1.0688-0.66368 1.5659-0.20653 0.4106-0.88892 0.28301-1.105-0.23178zm5.3277 4.5758c0.05839-0.63263 0.1603-1.2247 0.25723-1.8377 0.09689-0.61315 0.22077-1.2138 0.35489-1.8043 0.14212-0.58894 0.28376-1.171 0.45176-1.7368 0.16806-0.56601 0.37335-1.1006 0.57799-1.6384 0.13628-0.35814 0.59151-0.44412 0.83597-0.17347 0.42525 0.4708 0.86171 0.73532 1.3147 1.1615 0.46401 0.25619 0.95139 0.90667 1.445 1.347 0.46251 0.4126 0.90206 0.75639 1.3816 1.0835 0.34841 0.23762 0.35696 0.84805-0.05327 1.0918-0.46951 0.27892-0.88508 0.58376-1.3608 0.85413-0.42616 0.30519-0.9886 0.52886-1.4861 0.7911-0.49564 0.24192-0.97868 0.47298-1.463 0.72458-0.48802 0.25355-0.9754 0.48048-1.4606 0.72938-0.35562 0.18241-0.83611-0.15144-0.79542-0.5923zm-6.3444-24.613c0.17426-0.61547 0.40725-1.21 0.61598-1.8116 0.27261-0.58398 0.43691-1.1882 0.67171-1.7734 0.24463-0.58515 0.51655-1.1451 0.78159-1.718 0.29703-0.55048 0.66308-1.117 0.95478-1.6801 0.2903-0.56033 0.44996-1.1779 0.78536-1.7114 0.31465-0.50057 0.94356-0.50923 1.1506-0.08035 0.26942 0.55801 0.57852 1.1129 0.87092 1.6511 0.31796 0.54025 0.63643 1.0742 0.944 1.5862 0.35648 0.53016 0.75347 1.0206 1.0703 1.5069 0.32357 0.49663 0.61311 1.0106 0.97378 1.4878 0.30356 0.40163 0.01528 0.96048-0.47891 1.0331-0.50952 0.07483-0.93866 0.20475-1.4532 0.3085-0.45 0.14863-1.1027 0.19367-1.6471 0.33007-0.5404 0.09368-0.93893 0.28491-1.4494 0.44796-0.44401 0.17976-1.1168 0.26872-1.6626 0.47146-0.52474 0.19489-1.0349 0.45363-1.53 0.68351-0.41712 0.1937-0.75156-0.18903-0.59791-0.73169zm1.3261 7.0823c0.43561-0.48495 0.94344-0.94069 1.3982-1.3749 0.53751-0.41389 0.87524-0.83585 1.3193-1.2124 0.45689-0.40803 0.94673-0.74759 1.4267-1.088 0.47772-0.33884 0.91666-0.80159 1.4181-1.0949 0.33042-0.19327 0.77668 0.1823 0.79748 0.54467 0.03621 0.6307 0.12536 1.274 0.21659 1.8838 0.11595 0.627 0.22594 1.2134 0.36427 1.7877 0.14046 0.58311 0.25982 1.0993 0.4624 1.6568 0.03793 0.10438 0.08047 0.25922 0.04943 0.36446l-0.01393-0.01154c-0.08793 0.27092-0.39225 0.4579-0.71446 0.42676-0.6033-0.0583-1.1663-0.09622-1.7696-0.16713-0.60333-0.07092-1.176-0.17345-1.7804-0.25825-0.48454-0.06811-1.0171-0.20737-1.5179-0.28426-0.50083-0.07689-0.95763-0.08305-1.4392-0.16797-0.39504-0.06966-0.5123-0.63958-0.20848-0.97781zm9.5031-23.388c0.4779-0.40508 1.0403-0.75681 1.5408-1.1353 0.57173-0.32838 0.98067-0.75682 1.4852-1.1054 0.50888-0.38115 1.0367-0.74917 1.5719-1.0744 0.53128-0.37705 1.0805-0.70815 1.6395-0.98907 0.56184-0.28236 1.1316-0.46962 1.7175-0.73237 0.54474-0.24428 1.1242 0.078 1.0594 0.54668-0.0843 0.61036-0.13445 1.2295-0.18961 1.8344-0.0349 0.61376-0.102 1.0761-0.12925 1.6712-0.0332 0.49473-0.0121 1.2832-4e-3 1.9286 7e-3 0.60334 3e-3 1.1857 0.0448 1.7554 0.0364 0.50192-0.51273 0.76622-0.96848 0.55727-0.46944-0.21523-0.95565-0.47062-1.4414-0.65761-0.48796-0.23934-0.9635-0.35002-1.4579-0.50408-0.50234-0.15484-1.023-0.30556-1.5446-0.43708-0.52359-0.13593-1.0651-0.27282-1.5993-0.38203-0.53467-0.10931-1.0536-0.18389-1.6064-0.27937-0.4526-0.07817-0.53848-0.64049-0.11815-0.99677zm-2.7911 6.4735c0.62066-0.12755 1.2476-0.23038 1.8618-0.31524 0.61988-0.08299 1.2338-0.14356 1.836-0.18729 0.61658-0.03883 1.2646-0.02685 1.852-0.03197 0.59154-0.0052 1.1054-0.08522 1.6867-0.0498 0.3852 0.02347 0.59576 0.50292 0.40755 0.81997-0.32702 0.5509-0.61944 1.1169-0.89806 1.6798-0.2681 0.57018-0.56198 1.0934-0.79512 1.6607-0.23355 0.56826-0.41776 1.1716-0.6013 1.7432-0.12891 0.40147-0.65748 0.52764-1.0083 0.20567-0.4019-0.36885-0.82004-0.78563-1.2176-1.1619-0.40786-0.41285-0.76453-0.73044-1.1467-1.0995-0.38585-0.37689-0.79137-0.76822-1.1844-1.1588-0.38803-0.38565-0.79384-0.80337-1.1756-1.1999-0.27751-0.28828-0.04954-0.8161 0.38284-0.90496zm21.071-14.019c0.64314-0.0625 1.3298-0.05387 1.9834-0.07857 0.66849 0.0082 1.3312 0.03478 1.9899 0.08176 0.65795 0.04585 1.3442 0.11637 1.993 0.20194 0.67424 0.08774 1.3876 0.19731 2.0126 0.31872 0.63516 0.1234 1.2387 0.27012 1.8701 0.43221 0.58554 0.15031 0.80532 0.74533 0.45878 1.0697-0.45125 0.42238-0.88445 0.85756-1.3142 1.2933-0.42116 0.44252-0.85307 0.82235-1.2569 1.2726-0.41254 0.39912-0.68529 0.97104-1.0582 1.4578-0.36461 0.47591-0.84328 0.80148-1.1692 1.2832-0.28119 0.41554-0.82139 0.53792-1.0527 0.09484-0.22343-0.42806-0.34451-0.85245-0.60701-1.2807-0.14519-0.43349-0.57138-0.86382-0.90483-1.2972-0.31722-0.4123-0.62959-0.82817-0.93878-1.2266-0.37097-0.4675-0.76897-0.92565-1.1868-1.3747-0.41781-0.44908-0.85801-0.97779-1.3037-1.4047-0.33333-0.31932 0.12158-0.7411 0.69885-0.79721zm-6.0689 3.8456c0.59211 0.23435 1.1709 0.51474 1.731 0.78372 0.60263 0.29608 1.0562 0.5215 1.5594 0.80951 0.51891 0.28928 1.0383 0.62286 1.5312 0.96276 0.48455 0.33415 0.97548 0.70113 1.4254 1.068 0.29863 0.24352 0.20632 0.70571-0.12595 0.85179-0.5791 0.2546-0.99936 0.53453-1.5394 0.83253-0.41693 0.30977-1.1537 0.58811-1.7029 0.93626-0.51643 0.32734-0.99014 0.71621-1.4327 1.0771-0.32012 0.26102-0.82885 0.03158-0.94561-0.42781-0.13356-0.52551-0.27471-1.0886-0.3991-1.6131-0.13426-0.55332-0.24404-1.0451-0.35563-1.5555-0.11998-0.54285-0.20648-1.0381-0.31042-1.5599-0.10467-0.52547-0.22534-1.0622-0.32424-1.6045-0.0712-0.39039 0.47569-0.72451 0.889-0.56093zm25.321 1.4141c0.52987 0.33724 1.1733 0.81346 1.6832 1.1794 0.60247 0.37878 0.94555 0.6822 1.4001 1.0517 0.48702 0.3776 0.95697 0.79239 1.4231 1.2239 0.44857 0.40318 1.033 0.90197 1.4787 1.3646 0.4351 0.45162 0.82803 0.91371 1.2449 1.3829 0.39158 0.44067 0.2393 1.0466-0.22849 1.1291-0.6089 0.10735-1.0791 0.2437-1.6812 0.3758-0.49579 0.15564-1.2924 0.26912-1.9336 0.43373-0.60507 0.13101-1.1235 0.35377-1.6926 0.53527-0.58109 0.18534-1.1935 0.35282-1.7383 0.56289-0.47218 0.18208-0.86238-0.19818-0.7941-0.69663 0.0703-0.51344 0.13933-1.0311 0.17663-1.5555 0.0531-0.52318 0.16154-1.0161 0.1667-1.5505 0.10908-0.50632-0.0489-1.1512-0.0894-1.7104-0.07-0.58304-0.0983-1.068-0.15277-1.592-0.0567-0.54538-0.0158-1.0388-0.0874-1.5962-0.0582-0.45339 0.38494-0.72874 0.85136-0.43188zm-7.0526-0.68091c0.31229 0.55198 0.59432 1.0798 0.85978 1.6385 0.25302 0.52789 0.5166 1.0969 0.74228 1.6759 0.22011 0.52152 0.42477 1.156 0.60292 1.7388 0.17452 0.57092 0.40677 1.1582 0.53713 1.7099 0.0885 0.37479-0.35951 0.65719-0.71569 0.56875-0.61906-0.15372-1.266-0.40162-1.8774-0.50042-0.63657-0.22033-1.2288-0.26293-1.8166-0.27991-0.59944-0.01731-1.1215 0.11788-1.7162 0.11873-0.41286 5.99e-4 -0.72858-0.47876-0.53133-0.90884 0.2258-0.49234 0.53685-0.93509 0.77178-1.4236 0.31647-0.44282 0.45921-1.099 0.69195-1.5929 0.21581-0.58958 0.48689-0.8985 0.72044-1.3426 0.24935-0.47412 0.57919-0.9411 0.84776-1.434 0.19012-0.34894 0.75486-0.29686 0.97256 0.08793zm19.593 15.699c0.25596 0.57949 0.59716 1.2456 0.82044 1.842 0.30699 0.61217 0.36734 1.0831 0.54495 1.6775 0.14325 0.55078 0.37961 1.2956 0.53602 1.9621 0.16186 0.62882 0.26737 1.2536 0.37806 1.8932 0.11163 0.64511 0.23602 1.3226 0.31575 1.9708 0.0755 0.61419-0.39109 1.0191-0.82321 0.8017-0.5622-0.28285-1.1322-0.55787-1.6986-0.80288-0.56973-0.2554-1.1072-0.4533-1.6737-0.65895-0.55137-0.19328-1.1306-0.39616-1.7123-0.57131-0.57265-0.17244-1.0801-0.30487-1.6485-0.44006-0.48789-0.11604-0.71617-0.72277-0.38404-1.0938 0.34261-0.38274 0.66442-0.79854 0.98582-1.2087 0.30966-0.42699 0.59715-0.88219 0.89739-1.3141 0.26593-0.48347 0.5642-0.91826 0.84814-1.363 0.26056-0.50356 0.58897-0.89116 0.86314-1.3511 0.2784-0.46702 0.52833-0.9537 0.77468-1.4662 0.19913-0.41426 0.75072-0.38721 0.97598 0.12277zm-5.457-4.4968c-0.0473 0.6335-0.10614 1.2607-0.19222 1.8753-0.10965 0.58617-0.11285 1.2737-0.23501 1.8794-0.0408 0.62656-0.29638 1.1321-0.47049 1.6909-0.17591 0.56455-0.33398 1.1495-0.52825 1.6906-0.12954 0.3608-0.64812 0.37068-0.89783 0.10444-0.43433-0.46308-0.78384-0.8701-1.2404-1.2787-0.37199-0.3924-1.0132-0.93029-1.5292-1.3091-0.49106-0.36053-0.88916-0.55758-1.3785-0.87913-0.35272-0.23175-0.38228-0.81323 0.0237-1.0641 0.46471-0.28715 0.89323-0.6955 1.3625-0.97578 0.42557-0.40174 0.92908-0.54866 1.4032-0.8008 0.47774-0.2682 0.96937-0.55697 1.4585-0.8036 0.48718-0.24564 0.98434-0.4364 1.4691-0.69597 0.35248-0.18874 0.80218 0.14433 0.76922 0.58577z" fill="#f5cb76" style="paint-order:normal"/>
  </g>
 </g>
</svg>
