<svg width="64" height="64" version="1.1" viewBox="0 0 16.933 16.933" xmlns="http://www.w3.org/2000/svg">
 <g style="mix-blend-mode:normal">
  <g transform="matrix(1.3828 0 0 1.3828 -2.7568 -3.3991)">
   <rect x="4.2799" y="2.4581" width="7.4204" height="12.245" ry="0" fill="#ac8b6a" style="paint-order:markers fill stroke"/>
   <circle cx="8.1435" cy="4.1212" r="1.4133" fill="#b1420c"/>
   <g fill="#021a58" stroke-width=".05356">
    <path d="m10.927 3.9274c-0.87306-0.14706-1.5641 0.75223-2.0038 0.82-0.12352 0.0092-0.5256-0.19239-0.7459-0.28027-0.42604-0.16996-0.66893-0.35477-1.1794-0.36104-0.74435-0.0091-0.98339 0.20013-1.2311 0.36822-0.24771 0.16809-0.51395 0.3746-0.70733 0.37295-0.30786-0.0026-0.47242-0.26537-0.83485-0.4099-0.29906-0.11926-0.62404-0.19665-0.81393-0.36956-0.28572 0.41919-0.19576 1.8104-0.14592 2.0155 0.01465 0.06026 0.39053 0.29679 0.68794 0.44712 0.24951 0.12612 0.52877 0.34624 1.2553 0.30596 0.7122-0.03049 1.592-0.71094 1.8169-0.71901 0.17646-0.0063 0.37765 0.26238 0.69008 0.37241 0.35563 0.12524 0.95713 0.31269 1.3139 0.32312 0.73314 0.01679 1.1267-0.94433 1.8074-1.0304 0.28632-0.0198 0.41169 0.12305 0.75274 0.24726 0.39354 0.14332 0.7262 0.28768 0.7262 0.28768l0.70653-1.6244s-0.33711-0.22776-0.78869-0.39222c-0.45158-0.16446-0.70056-0.37337-1.306-0.37337z" color="#000000" style="-inkscape-stroke:none"/>
    <path d="m10.888 7.1313c-0.7045-0.04634-1.7975 0.84506-1.9393 0.89439-0.15365-0.03109-0.55136-0.18301-0.77165-0.27089-0.42604-0.16996-0.66893-0.35477-1.1794-0.36104-0.74435-0.0091-0.98339 0.20013-1.2311 0.36822-0.24771 0.16809-0.51395 0.3746-0.70733 0.37296-0.30786-0.0026-0.52696-0.17022-0.83485-0.40991-0.22536-0.17543-0.4083-0.27066-0.69444-0.33384-0.12969 0.79319-0.36133 1.7272-0.26541 1.9797 0.03753 0.09877 0.36246 0.12509 0.6751 0.42774 0.35544 0.3441 1.0238 0.24125 1.1776 0.38346 0.68752 0.07177 1.7072-0.86555 1.9233-0.8025 0.16841 0.04915 0.55772 0.25876 0.84443 0.42462 0.24297 0.14056 0.78695 0.28584 1.1437 0.29627 0.73314 0.01679 1.2811-0.88379 1.8074-1.0304 0.28632-0.0198 1.081 0.42117 1.4221 0.54538 0.06658-0.4983 0.5508-0.85162 0.3495-0.98318 0.16024-0.20134 0.41389-0.65165 0.41389-0.65165s-0.40757-0.34764-0.85916-0.5121-0.53047-0.28833-1.2742-0.33725z" color="#000000" style="-inkscape-stroke:none"/>
    <path d="m10.901 10.681c-0.7045-0.04634-1.7801 0.82164-1.9865 0.83038-0.31696 0.01342-0.97682-0.61682-1.9171-0.60305-0.74435-0.0091-0.98339 0.20013-1.2311 0.36822-0.24771 0.16809-0.51395 0.3746-0.70733 0.37295-0.30786-0.0026-0.52696-0.17022-0.83485-0.40991-0.22536-0.17543-0.52415-0.15691-0.80434-0.40504-0.11665 0.18534-0.14582 0.41592-0.176 0.57396 0.04428 0.19283-0.02747 1.3507 0.0205 1.477 0.03753 0.09877 0.36246 0.12509 0.6751 0.42774 0.35544 0.3441 1.0152 0.2812 1.169 0.42342 1.0228-0.09679 1.6581-0.75713 1.883-0.76545 0.19138-0.0071 0.55496 0.26934 0.89833 0.36907 0.26956 0.07829 0.78191 0.26439 1.1387 0.27482 0.73314 0.01679 1.5293-1.0389 1.9142-1.035 0.28699 0.0029 0.84016 0.53063 1.3212 0.58582 0.42025-0.47923 0.4168-1.2598 0.75744-1.6707-0.69418-0.47907-1.5568-0.77371-2.1202-0.81422z" color="#000000" style="-inkscape-stroke:none;mix-blend-mode:normal"/>
   </g>
   <g transform="matrix(.05356 0 0 .05356 2.3404 .87474)" stroke-linecap="round" stroke-linejoin="round" style="mix-blend-mode:normal">
    <path d="m38.899 107.91 24.062-1.0029a0.29854 0.29854 64.994 0 1 0.23298 0.49949l-1.9669 2.156a1.7146 1.7146 155.27 0 1-1.212 0.55816l-16.19 0.51666a3.0859 3.0859 14.447 0 1-1.6749-0.43152l-3.3305-1.9793a0.17034 0.17034 104.17 0 1 0.07993-0.31662z" fill="#fff" stroke-width="33.073"/>
    <path d="m48.338 77.024 9.4672 26.631a0.67093 0.67093 125.9 0 1-0.64822 0.89547l-8.1675-0.19549a1.2378 1.2378 45.686 0 1-1.2082-1.2375v-25.998a0.28662 0.28662 170.22 0 1 0.55669-0.09601z" fill="#f9f9f9" stroke-width="33.073" style="mix-blend-mode:normal"/>
   </g>
   <g transform="matrix(.05356 0 0 .05356 2.1898 .92806)" stroke-linecap="round" stroke-linejoin="round" style="mix-blend-mode:normal">
    <path transform="translate(110.59 53.891)" d="m46.083 105.96 7.3067 1.525a6.794 6.794 3.5808 0 0 1.9361 0.12116l8.471-0.68562a0.29586 0.29586 56.821 0 1 0.28444 0.43502l-1.2763 2.3734a0.89344 0.89344 149.85 0 1-0.8093 0.47001l-15.025-0.37718a0.752 0.752 38.28 0 1-0.70792-0.55869l-0.72464-2.7277a0.4656 0.4656 133.46 0 1 0.54512-0.57532z" fill="#fff" stroke-width="33.073" style="mix-blend-mode:normal"/>
    <path transform="matrix(-.70211 -.028297 -.04027 .99919 203.99 54.923)" d="m49.317 78.873 9.6239 22.48a0.69279 0.69279 118.9 0 1-0.52832 0.95688l-11.264 1.7872a0.99221 0.99221 43.875 0 1-1.1408-1.0968l2.8544-24.062a0.23779 0.23779 171.79 0 1 0.45474-0.06557z" fill="#f9f9f9" stroke-width="33.073" style="mix-blend-mode:normal"/>
    <path transform="translate(70.008 108.92)" d="m42.683 106.75 16.594 0.10874a0.44709 0.44709 66.729 0 1 0.32361 0.75246l-2.7265 2.9155a2.7825 2.7825 156.37 0 1-2.0153 0.88188l-8.3183 0.0509a1.8339 1.8339 25.8 0 1-1.4553-0.70352l-2.6849-3.4303a0.35612 0.35612 116.16 0 1 0.28277-0.57561z" fill="#fff" stroke-width="33.073" style="mix-blend-mode:normal"/>
    <path transform="translate(70.008 108.92)" d="m51.172 80.472 6.8817 17.196a1.9932 1.9932 105.76 0 1-0.66006 2.3391l-5.9572 4.4361a0.50856 0.50856 26.841 0 1-0.81229-0.41106l0.1461-23.485a0.20835 0.20835 169.27 0 1 0.40178-0.07611z" fill="#f9f9f9" stroke-width="33.073" style="mix-blend-mode:normal"/>
   </g>
   <g fill="#fff" stroke-linecap="round" stroke-linejoin="round" stroke-width=".05356">
    <path d="m4.0493 5.8293c-0.22138 0.0037-0.24841 0.11755-0.31431 0.12113-0.01932 1e-3 -0.07541-0.02736-0.13026-0.02782-0.0214 0.02526-0.01408 0.12032 0.0099 0.14433 0.05112-0.0086 0.09241-0.0292 0.13692-0.03301 0.0465-4e-3 0.06672 0.05889 0.29379 0.06742 0.13582 0.0051 0.32385-0.08903 0.32421-0.13806 3.42e-4 -0.04612-0.19435-0.13606-0.32022-0.13398zm0.03712 0.18594c-0.0075-0.03224-0.0087-0.07161 0.0017-0.10069 0.03379-0.0056 0.12269 0.0092 0.16582 0.04972-0.07998 0.05604-0.10907 0.06162-0.16757 0.05097zm-0.09638 0.01244c-0.0438-0.0047-0.15744-0.03267-0.15988-0.05264-0.0019-0.02504 0.11476-0.06022 0.15007-0.06657 0.03078 0.0318 0.02044 0.09041 0.0098 0.1192zm-0.35931-0.07303c0.01351-0.0034 0.05057 0.01851 0.05776 0.03489-0.0033 0.02237-0.04573 0.03563-0.05825 0.03293-0.0075-0.01704-0.01434-0.05926 4.82e-4 -0.06782z" color="#000000" style="-inkscape-stroke:none;mix-blend-mode:normal;paint-order:markers fill stroke"/>
    <path d="m9.9878 8.4289c-0.10761 1e-3 -0.26931 0.10191-0.28843 0.10185-0.01935-5.3e-5 -0.068-0.03655-0.10071-0.03991-0.02188 0.02748-0.02922 0.12951-0.0053 0.15352 0.05112-0.0086 0.07012-0.02362 0.11052-0.04268 0.07907-0.04105 0.12732 0.07897 0.26904 0.07869 0.11164-0.0013 0.29425-0.09752 0.29436-0.13216-0.04509-0.06086-0.1719-0.12036-0.2795-0.11931zm0.21357 0.11808c0.0056 0.02128-0.13263 0.0559-0.16418 0.05981-0.01173-0.046-0.01651-0.07282-0.01288-0.11621 0.05329-0.0098 0.16978 0.02897 0.17705 0.05641zm-0.26304 0.06745c-0.0438-0.0047-0.11792-0.03415-0.12036-0.05411-0.0026-0.02099 0.07248-0.0641 0.10779-0.07045 0.0113 0.03278 0.02144 0.0854 0.01257 0.12456zm-0.31681-0.07822c0.01852 0.0071 0.03549 0.02161 0.04986 0.02174-0.01693 0.01155-0.02767 0.02713-0.05296 0.03688-0.0066-0.01719-0.0063-0.05066 0.0031-0.05862z" color="#000000" style="-inkscape-stroke:none;mix-blend-mode:normal;paint-order:markers fill stroke"/>
    <path d="m11.604 8.5379c-0.1822 0-0.25597 0.06806-0.30022 0.08559-0.01799 0.0071-0.0664-0.02862-0.09911-0.03198-0.02188 0.02748-0.02883 0.1158-0.0049 0.13981 0.05112-0.0086 0.06191-0.02621 0.10607-0.033 0.05195-8e-3 0.10798 0.09852 0.29307 0.09141 0.11156-0.0043 0.27706-0.04854 0.31885-0.13535-0.06569-0.09533-0.20616-0.11752-0.31376-0.11648zm0.21357 0.11808c0.0056 0.02128-0.1203 0.0535-0.15185 0.0574-0.01173-0.046-0.01297-0.07624-0.0093-0.11963 0.05329-0.0098 0.1539 0.03479 0.16117 0.06223zm-0.24749 0.04827c-0.0438-0.0047-0.15023-0.036-0.15267-0.05597-0.0026-0.02099 0.1084-0.03293 0.14371-0.03928 0.03078 0.0318 0.01959 0.06646 9e-3 0.09525zm-0.2825-0.0373c-0.0093 0.02053-0.04587 0.01954-0.06101 0.02113-0.0066-0.01719-0.0059-0.04124 0.0036-0.04919 0.01726-1.61e-4 0.04171 9e-3 0.05744 0.02806z" color="#000000" style="-inkscape-stroke:none;mix-blend-mode:normal;paint-order:markers fill stroke"/>
    <path d="m6.3294 5.5595c-0.10146 0-0.23919 0.08409-0.30022 0.08559-0.01934 4.76e-4 -0.07837-0.05336-0.15172-0.04111 0.01186 0.03657 0.01075 0.12886 0.03469 0.15287 0.05112-0.0086 0.07494-0.03015 0.1191-0.03694 0.05195-8e-3 0.10773 0.0822 0.29281 0.07508 0.11156-0.0043 0.32402-0.07023 0.3191-0.11902-0.0026-0.02564-0.20616-0.11752-0.31376-0.11648zm0.04865 0.16541c-0.0075-0.03224-0.01509-0.06079-0.0047-0.08987 0.03378-0.0056 0.13313 0.01843 0.15997 0.04361-0.03306 0.03803-0.10326 0.04034-0.15528 0.04626zm-0.08258 9.47e-4c-0.0438-0.0047-0.13723-0.02575-0.13968-0.04571-0.0026-0.02099 0.0954-0.04319 0.13071-0.04953 0.03078 0.0318 0.01959 0.06646 9e-3 0.09525zm-0.35725-0.02014c-0.0066-0.01719-0.01449-0.04447-0.0051-0.05243 0.01726-1.6e-4 0.06091 0.0046 0.07664 0.02369-0.0121 0.03319-0.04209 0.02938-0.07159 0.02874z" color="#000000" style="-inkscape-stroke:none;mix-blend-mode:normal;paint-order:markers fill stroke"/>
    <path d="m7.9913 11.723c-0.1013-0.0058-0.16653 0.05431-0.22756 0.05581-0.01934 4.83e-4 -0.10112-0.06575-0.17448-0.05349-0.01287 0.03028-0.01138 0.19435 0.01256 0.21836 0.05112-0.0086 0.10062-0.05399 0.14478-0.06078 0.05195-8e-3 0.08465 0.10926 0.26973 0.10215 0.11156-0.0043 0.26609-0.11762 0.26118-0.1664-0.07273-0.08375-0.1797-0.08956-0.28622-0.09564zm0.05236 0.1768c-0.0075-0.03224 0.0012-0.07748 0.01164-0.10656 0.03378-0.0056 0.09547 0.02045 0.12231 0.04563-0.03661 0.04611-0.0774 0.07889-0.13395 0.06092zm-0.10324-0.0012c-0.0438-0.0047-0.10758-0.03978-0.11002-0.05975-0.0026-0.02099 0.06784-0.04408 0.10315-0.05042 0.03078 0.0318 0.0175 0.08138 0.0069 0.11017zm-0.29766-0.10532c0.01726-1.61e-4 0.06863 0.0091 0.08437 0.0282-0.02216 0.02615-0.06334 0.03828-0.08364 0.0452-0.0053-0.01802-0.01096-0.06476-7.23e-4 -0.07339z" color="#000000" style="-inkscape-stroke:none;mix-blend-mode:normal;paint-order:markers fill stroke"/>
    <path d="m10.175 11.875c-0.31218 0.0011-0.34701 0.09534-0.43702 0.10072-0.01931 0.0012-0.10112-0.06575-0.17448-0.0535-0.01287 0.03028-0.01138 0.19435 0.01256 0.21836 0.05112-0.0086 0.13218-0.06148 0.17593-0.07052 0.06755-0.01396 0.10591 0.08312 0.41901 0.07698 0.13589-0.0027 0.43334-0.09909 0.42842-0.14788-0.07273-0.08375-0.29854-0.12462-0.42442-0.12417zm0.05875 0.18483c-0.0075-0.03224-0.0098-0.06738 5.68e-4 -0.09646 0.03378-0.0056 0.20272 0.0079 0.22956 0.03312-0.03661 0.04611-0.17357 0.08131-0.23012 0.06334zm-0.10255 0.0093c-0.0438-0.0047-0.25339-0.02832-0.25583-0.04828-0.0026-0.02099 0.21365-0.05555 0.24896-0.06189 0.03078 0.0318 0.0175 0.08139 0.0069 0.11017zm-0.51421-0.07894c0.01726-1.61e-4 0.06863 0.0091 0.08437 0.0282-0.02216 0.02615-0.06334 0.03828-0.08364 0.0452-0.0053-0.01802-0.01097-0.06476-7.23e-4 -0.07339z" color="#000000" style="-inkscape-stroke:none;mix-blend-mode:normal;paint-order:markers fill stroke"/>
   </g>
  </g>
 </g>
</svg>
