<svg width="2e3" height="1e3" version="1.1" viewBox="0 0 529.17 264.58" xmlns="http://www.w3.org/2000/svg">
 <g transform="translate(-5.0479 -.033176)" style="mix-blend-mode:normal">
  <path d="m49.475 37.328c-5.8859 0.0971-6.6045 3.1252-8.3565 3.2204-0.51362 0.028-2.0049-0.72738-3.4633-0.73975-0.56905 0.67169-0.37428 3.1988 0.26216 3.8372 1.3592-0.22952 2.4569-0.77647 3.6404-0.87757 1.2364-0.10565 1.7739 1.5658 7.8111 1.7926 3.611 0.13579 8.6102-2.3671 8.6198-3.6707 9e-3 -1.2262-5.1671-3.6174-8.5137-3.5622zm0.98694 4.9436c-0.20072-0.85709-0.23001-1.9038 0.0465-2.677 0.89823-0.14912 3.262 0.2451 4.4088 1.3218-2.1265 1.4899-2.8998 1.6382-4.4552 1.3552zm-2.5624 0.33079c-1.1646-0.12451-4.1858-0.8686-4.2508-1.3994-0.0503-0.66575 3.0512-1.601 3.99-1.7698 0.81829 0.84533 0.54336 2.4038 0.26079 3.1692zm-9.5529-1.9417c0.35916-0.0904 1.3446 0.49218 1.5357 0.92772-0.0878 0.59479-1.2158 0.94733-1.5486 0.8754-0.2-0.453-0.38137-1.5755 0.0127-1.8031z" color="#000000" fill="#03c6fb" stroke-linecap="round" stroke-linejoin="round" stroke-width="1.424" style="-inkscape-stroke:none;mix-blend-mode:normal;paint-order:markers fill stroke"/>
  <path d="m224.42 137.66c-2.8609 0.028-7.1601 2.7094-7.6685 2.7078-0.51434-1e-3 -1.8079-0.97171-2.6776-1.061-0.5818 0.73051-0.77684 3.4433-0.14026 4.0817 1.3592-0.22949 1.8642-0.62801 2.9385-1.1347 2.1022-1.0914 3.385 2.0995 7.1529 2.0922 2.9681-0.0357 7.8232-2.5926 7.8262-3.5137-1.199-1.6181-4.5702-3.1999-7.4311-3.1722zm5.6782 3.1395c0.14978 0.56568-3.5262 1.4862-4.365 1.5901-0.31178-1.2229-0.43908-1.936-0.34237-3.0898 1.4169-0.26022 4.5141 0.77008 4.7074 1.4997zm-6.9935 1.7932c-1.1646-0.12438-3.1352-0.90788-3.2001-1.4387-0.0682-0.55812 1.9271-1.7042 2.8659-1.873 0.30041 0.87157 0.57009 2.2704 0.33425 3.3117zm-8.4231-2.0795c0.49248 0.18819 0.94363 0.57453 1.3256 0.57791-0.45007 0.30712-0.73555 0.72131-1.4081 0.98054-0.17424-0.45703-0.16844-1.347 0.0827-1.5584z" color="#000000" fill="#fff" stroke-linecap="round" stroke-linejoin="round" stroke-width="1.424" style="-inkscape-stroke:none;mix-blend-mode:normal;paint-order:markers fill stroke"/>
  <g>
   <path d="m492.93 95.315c-2.6975 0-6.3595 2.2358-7.9819 2.2756-0.51422 0.0118-2.0835-1.4187-4.0338-1.093 0.31542 0.9722 0.28594 3.426 0.92241 4.0645 1.3592-0.22954 1.9924-0.80164 3.1664-0.98209 1.3812-0.21233 2.8642 2.1853 7.785 1.9962 2.9661-0.11391 8.6147-1.8673 8.4839-3.1643-0.0687-0.68161-5.4812-3.1245-8.3421-3.0968zm1.2935 4.3977c-0.20072-0.85709-0.40111-1.6162-0.12472-2.3894 0.89822-0.14914 3.5396 0.48996 4.2531 1.1595-0.87891 1.0111-2.7454 1.0725-4.1284 1.2298zm-2.1954 0.0251c-1.1646-0.12451-3.6486-0.68456-3.7136-1.2154-0.0683-0.55813 2.5365-1.1482 3.4753-1.317 0.81828 0.84533 0.52083 1.7669 0.23826 2.5323zm-9.4984-0.53551c-0.17421-0.45705-0.38533-1.1825-0.13437-1.3939 0.45883-5e-3 1.6193 0.12241 2.0377 0.62986-0.32181 0.88235-1.119 0.78104-1.9033 0.76404z" color="#000000" fill="#03c6fb" stroke-linecap="round" stroke-linejoin="round" stroke-width="1.424" style="-inkscape-stroke:none;mix-blend-mode:normal;paint-order:markers fill stroke"/>
   <path d="m115.52 214.3c-2.6931-0.15387-4.4276 1.4439-6.05 1.4838-0.51419 0.0147-2.6885-1.748-4.6388-1.4223-0.34227 0.80501-0.3025 5.1672 0.33396 5.8056 1.3592-0.22953 2.6753-1.4355 3.8492-1.616 1.3813-0.21232 2.2505 2.905 7.1714 2.7158 2.9661-0.1139 7.0746-3.1271 6.9439-4.4241-1.9338-2.2266-4.7776-2.3811-7.6096-2.5428zm1.3921 4.7005c-0.20072-0.85709 0.0333-2.0599 0.30958-2.8331 0.89823-0.14913 2.5384 0.54373 3.2519 1.2133-0.97334 1.2259-2.0579 2.0975-3.5614 1.6198zm-2.7448-0.0325c-1.1646-0.12451-2.8603-1.0578-2.9252-1.5886-0.0682-0.5581 1.8037-1.1718 2.7425-1.3406 0.8183 0.84535 0.46532 2.1638 0.18283 2.9292zm-7.9139-2.8002c0.45883-4e-3 1.8247 0.24227 2.2431 0.74968-0.58925 0.69526-1.684 1.0178-2.2238 1.2016-0.14143-0.47917-0.29152-1.7218-0.0186-1.9513z" color="#000000" fill="#fffb41" style="-inkscape-stroke:none;mix-blend-mode:normal;paint-order:markers fill stroke"/>
   <path d="m63.898 190.22c-8.3 0.0296-9.226 2.5349-11.619 2.6778-0.51347 0.0308-2.6885-1.748-4.6388-1.4223-0.34225 0.805-0.30247 5.1672 0.33396 5.8056 1.3592-0.22952 3.5143-1.6346 4.6776-1.875 1.7961-0.37106 2.8158 2.2099 11.14 2.0467 3.6128-0.071 11.521-2.6345 11.39-3.9316-1.9338-2.2266-7.9372-3.3132-11.284-3.3013zm1.5619 4.914c-0.2007-0.85707-0.26139-1.7915 0.0147-2.5646 0.89821-0.14912 5.3897 0.21117 6.1032 0.88064-0.97334 1.2259-4.6147 2.1617-6.1182 1.684zm-2.7265 0.24682c-1.1646-0.12451-6.7369-0.75285-6.8018-1.2837-0.0682-0.55812 5.6803-1.4768 6.6191-1.6455 0.81832 0.84534 0.46532 2.1638 0.18284 2.9292zm-13.671-2.0988c0.45881-4e-3 1.8247 0.24224 2.2431 0.74965-0.58922 0.69525-1.684 1.0178-2.2238 1.2016-0.14141-0.47916-0.29151-1.7218-0.0186-1.9513z" color="#000000" fill="#fffb41" style="-inkscape-stroke:none;mix-blend-mode:normal;paint-order:markers fill stroke"/>
   <path d="m390.49 44.797c-5.8859 0.0971-6.6045 3.1252-8.3565 3.2204-0.51362 0.028-2.0049-0.72738-3.4633-0.73975-0.56905 0.67169-0.37428 3.1988 0.26216 3.8372 1.3592-0.22952 2.4569-0.77647 3.6404-0.87757 1.2364-0.10565 1.7739 1.5658 7.8111 1.7926 3.611 0.13579 8.6102-2.3671 8.6198-3.6707 9e-3 -1.2262-5.1671-3.6174-8.5137-3.5622zm0.98694 4.9436c-0.20072-0.85709-0.23001-1.9039 0.0465-2.677 0.89823-0.14912 3.262 0.2451 4.4088 1.3218-2.1265 1.4899-2.8998 1.6383-4.4552 1.3552zm-2.5624 0.33079c-1.1646-0.12451-4.1858-0.8686-4.2508-1.3994-0.0503-0.66575 3.0512-1.601 3.99-1.7698 0.81829 0.84533 0.54336 2.4038 0.26079 3.1692zm-9.5529-1.9417c0.35916-0.0904 1.3446 0.49218 1.5357 0.92772-0.0878 0.59479-1.2158 0.94733-1.5486 0.8754-0.2-0.453-0.38137-1.5755 0.0127-1.8031z" color="#000000" fill="#03c6fb" stroke-linecap="round" stroke-linejoin="round" stroke-width="1.424" style="-inkscape-stroke:none;mix-blend-mode:normal;paint-order:markers fill stroke"/>
  </g>
  <path d="m357.85 180.25c-2.8609 0.028-7.1601 2.7094-7.6685 2.7078-0.51434-1e-3 -1.8079-0.97171-2.6776-1.061-0.5818 0.73051-0.77684 3.4433-0.14026 4.0817 1.3592-0.22949 1.8642-0.62801 2.9385-1.1347 2.1022-1.0914 3.385 2.0995 7.1529 2.0922 2.9681-0.0357 7.8232-2.5926 7.8262-3.5137-1.199-1.6181-4.5702-3.1999-7.4311-3.1722zm5.6782 3.1395c0.14978 0.56568-3.5262 1.4862-4.365 1.5901-0.31178-1.2229-0.43908-1.936-0.34237-3.0898 1.4169-0.26022 4.5141 0.77008 4.7074 1.4997zm-6.9935 1.7932c-1.1646-0.12438-3.1352-0.90788-3.2001-1.4387-0.0682-0.55812 1.9271-1.7042 2.8659-1.873 0.30041 0.87157 0.57009 2.2704 0.33425 3.3117zm-8.4231-2.0795c0.49248 0.18819 0.94363 0.57453 1.3256 0.57791-0.45007 0.30712-0.73555 0.72131-1.4081 0.98054-0.17424-0.45703-0.16844-1.347 0.0827-1.5584z" color="#000000" fill="#fff" stroke-linecap="round" stroke-linejoin="round" stroke-width="1.424" style="-inkscape-stroke:none;mix-blend-mode:normal;paint-order:markers fill stroke"/>
  <path d="m450.88 127.18c-4.8443 0-6.8054 1.8094-7.9819 2.2756-0.47816 0.18955-1.7653-0.76103-2.635-0.85036-0.58179 0.73046-0.7666 3.0786-0.13014 3.717 1.3592-0.22952 1.6462-0.69686 2.8202-0.8773 1.3812-0.21233 2.8709 2.6194 7.7917 2.4303 2.9661-0.11391 7.3662-1.2905 8.4772-3.5984-1.7464-2.5344-5.4812-3.1245-8.3421-3.0968zm5.6782 3.1395c0.14977 0.56569-3.1983 1.4224-4.0372 1.5262-0.31181-1.2229-0.34471-2.0269-0.24801-3.1807 1.4169-0.2602 4.0919 0.92495 4.2852 1.6545zm-6.5801 1.2833c-1.1646-0.12451-3.9942-0.9572-4.0592-1.488-0.0682-0.55813 2.8821-0.87557 3.8209-1.0444 0.81832 0.84535 0.52087 1.767 0.23831 2.5324zm-7.5109-0.99174c-0.2465 0.54583-1.2197 0.51951-1.6221 0.56166-0.17423-0.45705-0.15616-1.0964 0.0948-1.3078 0.4588-4e-3 1.1089 0.23881 1.5273 0.74616z" color="#000000" fill="#fff" stroke-linecap="round" stroke-linejoin="round" stroke-width="1.424" style="-inkscape-stroke:none;mix-blend-mode:normal;paint-order:markers fill stroke"/>
  <g fill="#03c6fb" stroke-linecap="round" stroke-linejoin="round" stroke-width="1.424">
   <path d="m293.25 79.483c-2.6975 0-6.3595 2.2358-7.9819 2.2756-0.51422 0.0118-2.0835-1.4187-4.0338-1.093 0.31542 0.9722 0.28594 3.426 0.92241 4.0645 1.3592-0.22954 1.9924-0.80164 3.1664-0.98209 1.3812-0.21233 2.8642 2.1853 7.785 1.9962 2.9661-0.11391 8.6147-1.8673 8.4839-3.1643-0.0687-0.68161-5.4812-3.1245-8.3421-3.0968zm1.2935 4.3977c-0.20072-0.85709-0.40111-1.6162-0.12472-2.3894 0.89822-0.14914 3.5396 0.48996 4.2531 1.1595-0.87891 1.0111-2.7454 1.0725-4.1284 1.2298zm-2.1954 0.0251c-1.1646-0.12451-3.6486-0.68456-3.7136-1.2154-0.0683-0.55813 2.5365-1.1482 3.4753-1.317 0.81828 0.84533 0.52083 1.7669 0.23826 2.5323zm-9.4983-0.53551c-0.17421-0.45705-0.38533-1.1825-0.13437-1.3939 0.45882-5e-3 1.6193 0.12241 2.0376 0.62986-0.32181 0.88235-1.119 0.78104-1.9033 0.76404z" color="#000000" style="-inkscape-stroke:none;mix-blend-mode:normal;paint-order:markers fill stroke"/>
   <path d="m119.13 154.08c-5.8859 0.0971-6.6045 3.1252-8.3565 3.2204-0.51362 0.028-2.0049-0.72738-3.4633-0.73975-0.56905 0.67169-0.37428 3.1988 0.26216 3.8372 1.3592-0.22952 2.4569-0.77647 3.6404-0.87757 1.2364-0.10565 1.7739 1.5658 7.8111 1.7926 3.611 0.13579 8.6102-2.3671 8.6198-3.6707 9e-3 -1.2262-5.1671-3.6174-8.5137-3.5622zm0.98694 4.9436c-0.20072-0.85709-0.23001-1.9038 0.0465-2.677 0.89823-0.14912 3.262 0.2451 4.4088 1.3218-2.1265 1.4899-2.8998 1.6382-4.4552 1.3552zm-2.5624 0.33079c-1.1646-0.12451-4.1858-0.8686-4.2508-1.3994-0.0503-0.66575 3.0512-1.601 3.99-1.7698 0.81829 0.84533 0.54336 2.4038 0.26079 3.1692zm-9.5529-1.9417c0.35916-0.0904 1.3446 0.49218 1.5357 0.92772-0.0878 0.59479-1.2158 0.94733-1.5486 0.8754-0.2-0.453-0.38137-1.5755 0.0127-1.8031z" color="#000000" style="-inkscape-stroke:none;mix-blend-mode:normal;paint-order:markers fill stroke"/>
   <path d="m425.34 174.32c-2.6975 0-6.3595 2.2358-7.9819 2.2756-0.51422 0.0118-2.0835-1.4187-4.0338-1.093 0.31542 0.9722 0.28594 3.426 0.92241 4.0645 1.3592-0.22954 1.9924-0.80164 3.1664-0.98209 1.3812-0.21233 2.8642 2.1853 7.785 1.9962 2.9661-0.11391 8.6147-1.8673 8.4839-3.1643-0.0687-0.68161-5.4812-3.1245-8.3421-3.0968zm1.2935 4.3977c-0.20072-0.85709-0.40111-1.6162-0.12472-2.3894 0.89822-0.14914 3.5396 0.48996 4.2531 1.1595-0.87891 1.0111-2.7454 1.0725-4.1284 1.2298zm-2.1954 0.0251c-1.1646-0.12451-3.6486-0.68456-3.7136-1.2154-0.0683-0.55813 2.5365-1.1482 3.4753-1.317 0.81828 0.84533 0.52083 1.7669 0.23826 2.5323zm-9.4983-0.53551c-0.17421-0.45705-0.38533-1.1825-0.13437-1.3939 0.45882-5e-3 1.6193 0.12241 2.0376 0.62986-0.32181 0.88235-1.119 0.78104-1.9033 0.76404z" color="#000000" style="-inkscape-stroke:none;mix-blend-mode:normal;paint-order:markers fill stroke"/>
  </g>
  <g fill="#fffb41">
   <path d="m303.37 191.57c-2.6931-0.15387-4.4276 1.4439-6.05 1.4838-0.51419 0.0147-2.6885-1.748-4.6388-1.4223-0.34227 0.80501-0.3025 5.1672 0.33396 5.8056 1.3592-0.22953 2.6753-1.4355 3.8492-1.616 1.3813-0.21232 2.2505 2.905 7.1714 2.7158 2.9661-0.1139 7.0746-3.1271 6.9439-4.4241-1.9338-2.2266-4.7776-2.3811-7.6096-2.5428zm1.3921 4.7005c-0.20072-0.85709 0.0333-2.0599 0.30958-2.8331 0.89823-0.14913 2.5384 0.54373 3.2519 1.2133-0.97334 1.2259-2.0579 2.0975-3.5614 1.6198zm-2.7448-0.0325c-1.1646-0.12451-2.8603-1.0578-2.9252-1.5886-0.0682-0.5581 1.8037-1.1718 2.7425-1.3406 0.8183 0.84535 0.46532 2.1638 0.18283 2.9292zm-7.9139-2.8002c0.45883-4e-3 1.8247 0.24227 2.2431 0.74968-0.58925 0.69526-1.684 1.0178-2.2238 1.2016-0.14143-0.47917-0.29152-1.7218-0.0186-1.9513z" color="#000000" style="-inkscape-stroke:none;mix-blend-mode:normal;paint-order:markers fill stroke"/>
   <path d="m182.51 73.856c-2.6931-0.15387-4.4276 1.4439-6.05 1.4838-0.51419 0.0147-2.6885-1.748-4.6388-1.4223-0.34227 0.80501-0.3025 5.1672 0.33396 5.8056 1.3592-0.22953 2.6753-1.4355 3.8492-1.616 1.3813-0.21232 2.2505 2.905 7.1714 2.7158 2.9661-0.1139 7.0746-3.1271 6.9439-4.4241-1.9338-2.2266-4.7776-2.3811-7.6096-2.5428zm1.3921 4.7005c-0.20072-0.85709 0.0333-2.0599 0.30958-2.8331 0.89823-0.14913 2.5384 0.54373 3.2519 1.2133-0.97334 1.2259-2.0579 2.0975-3.5614 1.6198zm-2.7448-0.0325c-1.1646-0.12451-2.8603-1.0578-2.9252-1.5886-0.0682-0.5581 1.8037-1.1718 2.7425-1.3406 0.8183 0.84535 0.46532 2.1638 0.18283 2.9292zm-7.9139-2.8002c0.45883-4e-3 1.8247 0.24227 2.2431 0.74968-0.58925 0.69526-1.684 1.0178-2.2238 1.2016-0.14143-0.47917-0.29152-1.7218-0.0186-1.9513z" color="#000000" style="-inkscape-stroke:none;mix-blend-mode:normal;paint-order:markers fill stroke"/>
   <path d="m491.46 215.54c-8.3 0.0296-9.226 2.5349-11.619 2.6778-0.51347 0.0308-2.6885-1.748-4.6388-1.4223-0.34225 0.805-0.30247 5.1672 0.33396 5.8056 1.3592-0.22952 3.5143-1.6346 4.6776-1.875 1.7961-0.37106 2.8158 2.2099 11.14 2.0467 3.6128-0.071 11.521-2.6345 11.39-3.9316-1.9338-2.2266-7.9372-3.3132-11.284-3.3013zm1.5619 4.914c-0.2007-0.85707-0.26139-1.7915 0.0147-2.5646 0.89821-0.14912 5.3897 0.21117 6.1032 0.88064-0.97334 1.2259-4.6147 2.1617-6.1182 1.684zm-2.7265 0.24682c-1.1646-0.12451-6.7369-0.75285-6.8018-1.2837-0.0682-0.55812 5.6803-1.4768 6.6191-1.6455 0.81832 0.84534 0.46532 2.1638 0.18284 2.9292zm-13.671-2.0988c0.45881-4e-3 1.8247 0.24224 2.2431 0.74965-0.58922 0.69525-1.684 1.0178-2.2238 1.2016-0.14141-0.47916-0.29151-1.7218-0.0186-1.9513z" color="#000000" style="-inkscape-stroke:none;mix-blend-mode:normal;paint-order:markers fill stroke"/>
  </g>
 </g>
</svg>
